<svg width="32" height="37" viewBox="0 0 32 37" fill="none" xmlns="http://www.w3.org/2000/svg">
<path d="M7.2444 19.492C7.31603 19.1516 7.49508 18.8749 7.78156 18.6621C8.08236 18.4351 8.41898 18.2294 8.79141 18.045C9.17816 17.8606 9.57923 17.6903 9.99463 17.5343C10.41 17.364 10.7896 17.1867 11.1334 17.0022C11.4915 16.8178 11.7851 16.605 12.0143 16.3638C12.2435 16.1085 12.3581 15.8035 12.3581 15.4488C12.3581 14.9948 12.2363 14.6189 11.9928 14.3209C11.7637 14.023 11.4485 13.7676 11.0474 13.5548C10.6607 13.342 10.2167 13.1647 9.71531 13.0228C9.21397 12.881 8.6983 12.7391 8.16831 12.5972C7.65264 12.4412 7.14414 12.278 6.64279 12.1078C6.14145 11.9234 5.69024 11.6964 5.28917 11.4268C4.90242 11.1573 4.58729 10.831 4.34378 10.4479C4.11459 10.0649 4 9.58962 4 9.02215C4 8.55398 4.09311 8.11419 4.27932 7.70277C4.47986 7.27716 4.73769 6.87993 5.05282 6.51107C5.38227 6.12803 5.7547 5.78045 6.1701 5.46834C6.59982 5.15623 7.04387 4.89377 7.50224 4.68097C7.97493 4.46817 8.44763 4.30502 8.92032 4.19152C9.39302 4.06384 9.8299 4 10.231 4H10.4673C10.5962 4.04256 10.7681 4.11349 10.983 4.2128C11.1979 4.31211 11.4056 4.41142 11.6061 4.51073C11.8066 4.59585 11.9785 4.68097 12.1218 4.76609C12.265 4.83702 12.3366 4.87958 12.3366 4.89377V5.38322C12.0645 5.41159 11.7135 5.46834 11.2838 5.55346C10.8541 5.62439 10.4029 5.7237 9.93017 5.85138C9.45748 5.97907 8.97762 6.14221 8.4906 6.34083C8.00358 6.52526 7.5667 6.74516 7.17995 7.00052C6.7932 7.25588 6.47807 7.55381 6.23456 7.89429C5.99105 8.22059 5.86929 8.59654 5.86929 9.02215C5.86929 9.63218 6.08415 10.1145 6.51388 10.4692C6.9436 10.8097 7.48075 11.0934 8.12534 11.3204C8.76992 11.5474 9.4718 11.7531 10.231 11.9375C11.0045 12.1078 11.7135 12.3206 12.3581 12.576C13.0027 12.8171 13.5398 13.1434 13.9696 13.5548C14.3993 13.9521 14.6141 14.4912 14.6141 15.1721C14.6141 15.541 14.4996 15.9311 14.2704 16.3426C14.0555 16.7398 13.7619 17.137 13.3894 17.5343C13.0313 17.9173 12.6231 18.2862 12.1647 18.6408C11.7064 18.9955 11.2337 19.3076 10.7466 19.5772C10.2739 19.8325 9.80842 20.0453 9.35004 20.2156C8.89167 20.3716 8.48344 20.4497 8.12534 20.4497C8.01074 20.4497 7.88899 20.4355 7.76007 20.4071C7.63115 20.3787 7.51656 20.3362 7.41629 20.2794C7.33035 20.2085 7.25873 20.1092 7.20143 19.9815C7.15846 19.8538 7.17278 19.6907 7.2444 19.492Z" fill="#283463"/>
<path d="M21.0385 31.7282C21.8406 31.7282 22.5568 31.5792 23.1871 31.2813C23.8174 30.9976 24.3474 30.6003 24.7771 30.0896C25.2211 29.5931 25.5577 29.0185 25.7869 28.3659C26.0304 27.7275 26.1522 27.0607 26.1522 26.3656C26.1522 26.0109 26.1307 25.5427 26.0877 24.9611C26.0591 24.3794 26.009 23.7481 25.9373 23.0671C25.8657 22.3862 25.7583 21.691 25.615 20.9817C25.4861 20.2723 25.3214 19.6055 25.1209 18.9813C24.9203 18.3429 24.6697 17.7896 24.3688 17.3215C24.0824 16.8391 23.7457 16.4986 23.359 16.3C22.9866 16.5837 22.6213 16.8462 22.2632 17.0874C21.9051 17.3144 21.5327 17.5059 21.1459 17.6619C20.7592 17.818 20.3581 17.9457 19.9427 18.045C19.5273 18.1301 19.0833 18.1727 18.6106 18.1727C17.9946 18.1727 17.4646 18.1159 17.0206 18.0024C16.5909 17.8889 16.2256 17.6974 15.9248 17.4279C15.6383 17.1583 15.4235 16.8036 15.2802 16.3638C15.137 15.924 15.0654 15.3708 15.0654 14.704C15.0654 14.2358 15.1799 13.7818 15.4091 13.342C15.6383 12.8881 15.9391 12.4696 16.3115 12.0865C16.6983 11.6893 17.128 11.3275 17.6007 11.0012C18.0877 10.6749 18.5819 10.3912 19.0833 10.15C19.5989 9.90882 20.1003 9.72439 20.5873 9.59671C21.0886 9.46903 21.5327 9.40519 21.9194 9.40519C22.2919 9.40519 22.5998 9.41938 22.8433 9.44775C23.0868 9.46194 23.2945 9.51869 23.4664 9.61799C23.6383 9.70311 23.7816 9.84498 23.8962 10.0436C24.0251 10.228 24.1468 10.4834 24.2614 10.8097C24.5909 11.9163 24.9705 13.108 25.4002 14.3848C25.8299 15.6616 26.2381 16.9739 26.6249 18.3216C27.0116 19.6694 27.3339 21.0242 27.5918 22.3862C27.8639 23.7623 28 25.0888 28 26.3656C28 27.5005 27.8353 28.4581 27.5058 29.2384C27.1907 30.0329 26.7681 30.6784 26.2381 31.1749C25.7225 31.6856 25.128 32.0758 24.4548 32.3453C23.7959 32.6149 23.1298 32.7851 22.4566 32.8561C21.7833 32.9412 21.1316 32.9625 20.5013 32.9199C19.8711 32.8773 19.3268 32.7922 18.8684 32.6645C18.41 32.551 18.0591 32.4163 17.8156 32.2602C17.5864 32.1042 17.5291 31.9694 17.6437 31.8559C17.7726 31.7566 18.1021 31.6856 18.632 31.6431C19.162 31.6005 19.9642 31.6289 21.0385 31.7282ZM21.3393 11.1927C20.2793 11.4197 19.4199 11.7389 18.761 12.1503C18.1164 12.5476 17.6294 12.9803 17.2999 13.4484C16.9848 13.9024 16.8129 14.3635 16.7842 14.8317C16.7556 15.2856 16.8415 15.6758 17.0421 16.0021C17.2426 16.3284 17.5291 16.5766 17.9015 16.7469C18.2883 16.9029 18.7252 16.91 19.2122 16.7682C19.6992 16.6121 20.2149 16.2858 20.7592 15.7893C21.3178 15.2927 21.8765 14.555 22.4351 13.5761C22.4351 13.3349 22.4351 13.0725 22.4351 12.7888C22.4494 12.505 22.4279 12.2497 22.3706 12.0227C22.3133 11.7815 22.2059 11.5829 22.0483 11.4268C21.8908 11.2708 21.6544 11.1927 21.3393 11.1927Z" fill="#283463"/>
<path d="M23.028 6.0343C23.028 7.05855 22.1897 7.88886 21.1555 7.88886C20.1214 7.88886 19.283 7.05855 19.283 6.0343C19.283 5.01006 19.8873 4.64339 20.9215 4.64339C21.9556 4.64339 23.028 5.01006 23.028 6.0343Z" fill="#283463"/>
</svg>
